<?xml version="1.0" standalone="no"?>
<!DOCTYPE svg PUBLIC "-//W3C//DTD SVG 20010904//EN"
 "http://www.w3.org/TR/2001/REC-SVG-20010904/DTD/svg10.dtd">
<svg version="1.0" xmlns="http://www.w3.org/2000/svg"
 width="600.000000pt" height="600.000000pt" viewBox="0 0 600.000000 600.000000"
 preserveAspectRatio="xMidYMid meet">
<metadata>
Created by potrace 1.11, written by Peter Selinger 2001-2013
</metadata>
<g transform="translate(0.000000,600.000000) scale(0.100000,-0.100000)"
fill="#000000" stroke="none">
<path d="M0 3000 l0 -3000 3000 0 3000 0 0 3000 0 3000 -3000 0 -3000 0 0
-3000z m3310 1708 c0 -18 -7 -120 -16 -228 -19 -239 -16 -339 14 -401 l22 -45
142 -12 c250 -20 371 -46 620 -129 l227 -76 40 36 c50 45 109 76 153 79 l33 3
3 -92 c3 -89 4 -93 32 -113 16 -12 90 -36 164 -55 74 -18 157 -45 184 -59 77
-39 145 -113 193 -211 23 -47 46 -85 50 -85 9 0 25 41 116 300 70 197 134 351
177 425 27 45 71 83 83 72 3 -4 -3 -282 -13 -619 -13 -413 -17 -683 -12 -828
12 -386 29 -762 37 -834 5 -39 7 -73 5 -75 -6 -7 -78 47 -117 87 -29 29 -57
86 -125 247 -139 329 -174 406 -184 403 -5 -2 -24 -40 -43 -86 -47 -116 -108
-226 -163 -294 -89 -110 -234 -210 -414 -285 -49 -19 -92 -41 -98 -48 -13 -16
-15 -48 -6 -119 l8 -59 -34 6 c-65 10 -153 51 -188 85 l-35 35 -120 -42 c-147
-52 -224 -71 -292 -71 -58 0 -257 -68 -291 -100 -16 -15 -20 -36 -24 -122 -4
-81 -13 -124 -39 -200 -18 -54 -38 -98 -44 -98 -40 0 -218 152 -396 338 l-125
131 -290 -10 c-291 -9 -328 -11 -754 -50 -325 -29 -429 -24 -615 31 -235 69
-323 132 -344 246 -6 33 -18 92 -26 132 -22 109 -15 112 105 52 44 -22 85 -40
92 -40 7 0 32 28 56 61 23 33 50 63 59 66 9 4 30 -2 47 -12 17 -10 69 -38 115
-63 l84 -45 34 19 c42 22 111 98 119 131 4 13 9 23 13 23 3 0 26 -29 51 -65
47 -68 54 -73 67 -51 4 7 36 44 70 80 72 76 68 76 153 1 28 -25 54 -45 59 -45
14 0 29 23 40 65 24 86 47 86 109 -3 24 -34 47 -62 51 -62 10 0 31 69 31 99 0
53 -137 357 -166 368 -21 8 -60 -32 -90 -94 -15 -29 -30 -56 -35 -58 -4 -3
-31 24 -60 59 -60 75 -58 75 -132 -15 -29 -36 -55 -59 -68 -59 -48 0 -135 40
-169 79 l-36 39 -54 -79 c-51 -72 -58 -78 -98 -85 -52 -8 -93 8 -145 55 l-37
34 -59 -56 c-32 -31 -70 -59 -84 -62 -43 -11 -93 13 -142 67 -43 48 -46 50
-74 38 -16 -6 -48 -38 -72 -71 -23 -33 -48 -58 -53 -56 -17 5 -53 163 -70 304
-64 530 -66 592 -21 746 44 151 115 268 225 370 121 113 259 160 580 202 69 9
210 31 314 50 105 20 258 42 340 50 83 9 188 21 233 27 46 6 138 9 212 6 l130
-6 97 147 c167 253 286 398 404 493 91 74 179 118 238 118 41 0 42 -1 42 -32z"/>
</g>
</svg>
